<?xml version="1.0" encoding="utf-8"?>
<!-- Svg Vector Icons : http://www.onlinewebfonts.com/icon -->
<!DOCTYPE svg PUBLIC "-//W3C//DTD SVG 1.1//EN" "http://www.w3.org/Graphics/SVG/1.1/DTD/svg11.dtd">
<svg version="1.1" xmlns="http://www.w3.org/2000/svg" xmlns:xlink="http://www.w3.org/1999/xlink" x="0px" y="0px" viewBox="0 0 1000 1000" enable-background="new 0 0 1000 1000" xml:space="preserve">
<metadata> Svg Vector Icons : http://www.onlinewebfonts.com/icon </metadata>
<g><path fill="#2f3259" d="M316.3,500l-42.9,189.9L463.2,647l392-392l-147-147L316.3,500z M745,248.9L451,549l-36.7-36.8l294-294L745,248.9z"/><path d="M843,10c-24.5,0-42.9,6.1-61.3,18.4l-42.9,42.9l147,147l42.9-36.8c12.3-18.4,18.4-36.8,18.4-61.2C947.1,59,898.1,10,843,10z"/><path d="M775.6,395.9v526.8c0,6.1-6.1,12.3-12.3,12.3H120.3c-6.1,0-12.3-6.1-12.3-12.3V206c0-6.1,6.1-12.3,12.3-12.3h410.4v-55.1H120.3c-36.8,0-67.4,30.6-67.4,67.4v716.6c0,36.8,30.6,67.4,67.4,67.4h643.1c36.7,0,67.4-30.6,67.4-67.4c0,0,0-520.6,0-526.8H775.6z"/></g>
</svg>